<svg xmlns="http://www.w3.org/2000/svg" viewBox="0 0 64 64" role="img" aria-label="Download Killer">
  <defs>
    <linearGradient id="g" x1="0" y1="0" x2="1" y2="1">
      <stop offset="0" stop-color="#c9ff4b"/>
      <stop offset="1" stop-color="#5edbff"/>
    </linearGradient>
  </defs>
  <rect width="64" height="64" rx="16" fill="#070a13"/>
  <rect x="3" y="3" width="58" height="58" rx="13" fill="none" stroke="url(#g)" stroke-width="3"/>
  <path d="M17 17v30h8c10 0 16-5.5 16-15S35 17 25 17h-8zm8 8h1c4.8 0 7 2.3 7 7s-2.2 7-7 7h-1V25z" fill="#c9ff4b"/>
  <path d="M39 17v30h8V36l8 11h9L52 31l11-14h-9L47 27V17h-8z" fill="#5edbff" transform="translate(-4)"/>
</svg>
